<svg xmlns="http://www.w3.org/2000/svg" viewBox="840 1180 2360 1720" preserveAspectRatio="xMidYMid meet">
<g transform="translate(0.000000,4096.000000) scale(0.100000,-0.100000)" fill="#000000" stroke="none">
<path d="M30763 28118 c-17 -35 -45 -106 -63 -158 -92 -271 -330 -605 -564
-794 -230 -184 -351 -261 -599 -378 -195 -91 -325 -144 -445 -179 -255 -76
-322 -95 -447 -129 -77 -21 -171 -48 -210 -60 -348 -110 -448 -146 -566 -205
-130 -65 -366 -216 -426 -272 -18 -17 -58 -52 -89 -79 -80 -70 -229 -242 -309
-359 -61 -89 -169 -297 -190 -365 -4 -14 -19 -50 -33 -80 -29 -63 -85 -267
-107 -385 -27 -145 -36 -532 -19 -796 8 -129 19 -256 24 -284 15 -76 30 -207
24 -217 -3 -4 -9 -8 -13 -8 -20 0 -132 266 -176 420 -47 165 -113 342 -194
524 -137 309 -259 492 -466 701 -114 115 -166 158 -280 235 -159 106 -248 151
-420 210 -152 52 -203 63 -465 100 -163 23 -280 33 -480 40 -443 16 -559 26
-785 66 -77 13 -169 29 -205 35 -131 22 -398 101 -508 151 -156 70 -330 159
-411 209 -51 33 -95 59 -98 59 -10 0 -180 127 -263 196 -47 38 -139 125 -205
192 -100 101 -124 120 -142 116 -37 -10 -42 -55 -27 -226 18 -205 36 -313 84
-508 101 -405 184 -624 363 -964 126 -238 283 -470 455 -669 83 -97 298 -308
397 -390 117 -97 375 -272 501 -340 332 -179 538 -263 916 -372 87 -25 168
-49 180 -55 13 -5 131 -39 263 -75 479 -133 721 -228 994 -391 224 -133 380
-311 427 -488 38 -142 -7 -340 -131 -573 -168 -318 -418 -576 -775 -800 -182
-114 -205 -125 -520 -251 -41 -17 -120 -42 -175 -57 -55 -14 -119 -33 -142
-40 -23 -8 -100 -24 -170 -35 -210 -33 -247 -41 -265 -57 -25 -22 -23 -27 23
-64 59 -47 251 -126 504 -207 383 -123 549 -166 805 -206 83 -14 134 -18 580
-52 214 -16 247 -20 238 -29 -11 -12 -241 -64 -323 -74 -294 -35 -498 -39
-765 -16 -376 33 -610 85 -985 220 -71 25 -173 61 -225 80 -199 70 -298 115
-740 335 -107 54 -233 117 -280 142 -47 25 -152 80 -235 123 -82 43 -181 96
-220 118 -38 22 -92 52 -120 67 -27 15 -93 51 -145 80 -52 29 -138 76 -190
105 -52 28 -124 69 -160 90 -36 21 -92 52 -125 68 -33 16 -161 87 -285 157
-124 70 -281 156 -350 192 -69 36 -156 82 -195 103 -148 80 -189 102 -505 263
-355 181 -825 408 -935 452 -38 16 -104 44 -145 63 -275 128 -405 184 -535
232 -165 62 -323 123 -354 139 -37 19 -159 63 -561 202 -414 143 -627 212
-870 278 -113 32 -250 71 -304 87 -55 17 -145 41 -200 54 -56 13 -124 31 -153
39 -29 9 -114 29 -190 45 -76 16 -199 43 -273 60 -344 77 -958 198 -1125 221
-44 6 -134 20 -200 30 -252 41 -505 77 -670 95 -33 3 -152 19 -265 35 -217 30
-331 43 -525 61 -66 5 -192 19 -280 29 -88 11 -245 24 -350 30 -104 6 -266 15
-360 20 -1336 75 -2022 42 -2446 -116 -89 -33 -223 -117 -284 -178 -76 -76
-100 -133 -100 -233 0 -76 2 -84 28 -111 36 -38 134 -66 282 -81 183 -20 351
-46 715 -111 225 -40 445 -90 628 -141 57 -16 149 -40 205 -53 202 -48 507
-144 857 -270 69 -25 182 -65 253 -90 70 -25 196 -76 280 -114 83 -38 217 -98
297 -133 284 -125 781 -386 1124 -591 142 -85 472 -307 605 -407 63 -47 126
-95 140 -106 14 -10 63 -51 109 -90 46 -38 98 -82 117 -96 114 -88 411 -389
595 -604 41 -48 80 -92 85 -99 11 -11 299 -372 369 -463 23 -28 90 -118 150
-200 108 -146 148 -199 236 -312 25 -32 58 -76 75 -97 147 -191 335 -404 540
-610 376 -379 754 -658 1172 -865 194 -96 249 -109 278 -65 15 23 16 44 11
178 -7 153 5 253 29 253 6 0 44 -101 86 -225 212 -622 356 -955 636 -1470 127
-233 178 -317 396 -650 150 -229 373 -530 470 -635 11 -11 53 -60 95 -110 101
-118 406 -429 507 -516 44 -38 114 -99 155 -135 94 -82 316 -253 452 -349 97
-67 382 -232 513 -296 363 -176 597 -260 925 -332 348 -76 720 -94 1064 -50
57 7 86 31 86 72 0 24 -32 61 -198 228 -267 267 -325 331 -505 555 -166 208
-197 250 -340 463 -167 248 -292 462 -462 790 -43 83 -86 161 -95 175 -10 14
-44 79 -77 145 -93 190 -283 523 -374 656 -13 20 -42 62 -63 95 -160 241 -359
477 -593 706 -232 228 -379 348 -643 527 -318 215 -615 374 -925 496 -93 36
-199 77 -235 91 -36 14 -114 41 -175 59 -280 84 -317 95 -332 103 -36 21 19
27 214 25 171 -1 223 -6 340 -28 312 -59 552 -125 887 -245 256 -90 629 -286
851 -445 42 -30 85 -60 97 -66 27 -14 177 -132 291 -227 222 -186 467 -440
627 -648 126 -164 352 -529 457 -739 58 -113 98 -170 131 -184 26 -11 44 -9
134 14 223 57 428 128 798 277 165 67 370 159 425 190 11 7 97 51 190 99 193
98 293 155 515 292 148 92 192 122 430 292 375 270 724 587 1125 1025 267 292
578 729 812 1140 54 96 293 572 293 584 0 3 13 34 29 68 81 178 271 692 324
878 45 156 66 234 92 345 14 61 39 165 56 232 16 68 41 185 54 260 22 133 64
360 86 473 32 164 101 380 162 505 187 382 435 656 888 980 244 174 552 418
683 540 136 126 241 230 280 274 26 31 71 81 100 111 165 178 403 511 516 725
35 66 75 143 91 171 122 223 286 725 328 1009 41 271 41 716 0 940 -20 108
-100 428 -125 500 -32 89 -95 218 -110 223 -6 1 -25 -25 -41 -60z m-14313
-6874 c284 -68 384 -95 471 -129 51 -21 123 -46 159 -57 36 -11 85 -30 110
-43 25 -12 77 -33 115 -45 79 -26 272 -107 355 -150 30 -16 132 -65 227 -109
165 -76 283 -150 283 -176 0 -20 -117 -45 -265 -55 -159 -12 -287 -25 -360
-38 -198 -36 -267 -44 -355 -40 -87 4 -104 9 -184 46 -104 50 -169 108 -328
297 -101 119 -292 308 -378 373 -49 37 -160 145 -160 156 0 15 199 -4 310 -30z"/>
<path d="M9264 22961 c-87 -38 -82 -164 12 -329 14 -26 40 -72 57 -102 73
-132 260 -426 550 -864 73 -109 157 -238 187 -286 30 -47 78 -117 105 -156 28
-38 81 -114 117 -169 36 -55 103 -152 147 -215 45 -63 101 -144 126 -180 45
-66 101 -146 282 -401 157 -223 163 -231 248 -345 104 -138 269 -359 372 -498
45 -61 122 -160 171 -221 50 -60 123 -152 164 -203 40 -52 93 -119 118 -151
61 -77 130 -160 215 -256 39 -44 83 -96 99 -115 198 -242 644 -702 939 -967
443 -399 948 -776 1377 -1026 41 -24 104 -61 140 -82 497 -292 1139 -564 1734
-736 78 -22 177 -51 221 -64 44 -13 134 -35 200 -50 66 -14 138 -30 160 -35
22 -5 65 -14 95 -20 30 -5 100 -19 155 -29 55 -11 172 -29 260 -41 88 -11 219
-29 290 -40 257 -38 853 -65 1220 -55 264 7 345 15 365 40 16 19 -13 82 -78
168 -29 37 -82 116 -118 175 -37 59 -93 148 -126 199 -134 210 -328 567 -423
778 -55 122 -148 358 -179 452 -10 28 -27 64 -39 79 -23 30 -107 71 -207 102
-139 43 -447 168 -535 218 -33 19 -94 52 -135 74 -513 272 -1058 768 -1535
1397 -137 180 -311 412 -386 514 -175 239 -344 461 -433 569 -266 323 -580
640 -839 847 -235 188 -561 417 -752 527 -55 32 -140 84 -190 116 -96 61 -247
145 -465 257 -515 266 -690 344 -1260 559 -277 104 -597 206 -910 290 -490
131 -595 154 -920 209 -47 8 -155 26 -240 40 -171 29 -324 40 -356 26z m2148
-2090 c30 -22 72 -61 94 -87 21 -27 102 -119 180 -205 77 -86 215 -245 307
-353 92 -108 178 -209 191 -224 79 -91 251 -287 265 -301 9 -10 32 -35 51 -57
74 -84 205 -229 210 -234 3 -3 87 -93 187 -200 257 -278 722 -733 983 -962 36
-31 88 -78 115 -103 28 -26 83 -75 124 -108 41 -34 108 -92 150 -128 42 -36
121 -101 176 -144 55 -43 123 -97 150 -120 47 -40 134 -106 291 -220 85 -62
475 -323 564 -378 353 -216 527 -313 829 -459 112 -54 205 -98 207 -98 2 0 42
-18 89 -40 114 -54 318 -136 545 -220 274 -101 320 -117 485 -166 82 -24 202
-60 265 -79 102 -32 257 -74 490 -134 41 -10 146 -35 233 -56 86 -20 155 -40
152 -44 -8 -13 -374 -21 -475 -10 -52 5 -140 14 -195 19 -55 5 -149 13 -210
19 -100 9 -204 25 -445 66 -47 9 -103 19 -125 24 -22 5 -87 19 -145 31 -117
24 -476 114 -615 155 -286 83 -769 269 -1015 391 -58 28 -161 79 -230 112
-365 177 -882 510 -1302 838 -338 264 -835 734 -1129 1064 -295 333 -361 415
-667 825 -129 172 -330 487 -517 810 -32 55 -75 129 -96 165 -20 36 -67 128
-104 205 -37 77 -82 172 -101 210 -38 79 -54 133 -54 186 0 62 16 64 92 10z
m1665 -285 c100 -65 219 -179 823 -784 480 -481 680 -676 995 -973 116 -110
479 -432 550 -489 17 -14 76 -63 130 -110 99 -85 151 -126 460 -362 261 -200
762 -543 1011 -693 36 -22 88 -55 115 -73 54 -35 311 -181 454 -257 50 -26
142 -76 205 -110 117 -63 396 -198 664 -321 152 -70 200 -99 191 -115 -11 -17
-205 -10 -295 11 -47 11 -159 36 -250 55 -400 87 -804 216 -1155 368 -88 38
-194 84 -235 102 -191 83 -545 270 -740 393 -237 148 -362 231 -485 320 -71
52 -150 109 -175 126 -24 17 -103 78 -175 135 -550 441 -1008 910 -1447 1482
-278 362 -602 886 -698 1129 -12 30 -28 71 -36 90 -7 19 -13 51 -14 71 0 63
16 64 107 5z"/>
</g>
</svg>
